# xmcd CD database file
#
# Track frame offsets:
#	150
#	13392
#	26474
#	42445
#	57213
#	76427
#	90130
#	102563
#	121849
#	136077
#	154254
#	166388
#
# Disc length: 2360 seconds
#
# Revision: 1
# Processed by: cddbd v1.5.2PL0 Copyright (c) Steve Scherf et al.
# Submitted via: CDex 1.51
#
DISCID=9009360c
DTITLE=Junge Dichter und Denker - Englisch lernen 1
DYEAR=2009
DGENRE=Other
TTITLE0=Wir zählen von 1 bis 10 - We count from 1 to 10
TTITLE1=Abc
TTITLE2=Ich kann - I can
TTITLE3=Rot, orange, gelb und grün - Red, orange, yellow and green
TTITLE4=Eine Woche hat 7 Tage - A week has 7 days
TTITLE5=Old McDonald
TTITLE6=Was ist da auf deinem Teller? - What is on your plate?
TTITLE7=Ich, du, er, sie, es - I. you, he, she, it
TTITLE8=Hört ihr die Geräusche? - Do you hear the sounds?
TTITLE9=Bewegen wie ein Tier - Moving like an animal
TTITLE10=Instrumente - Instruments
TTITLE11=Head, shoulders, knees and toes
EXTD=YEAR: 2009
EXTT0=
EXTT1=
EXTT2=
EXTT3=
EXTT4=
EXTT5=
EXTT6=
EXTT7=
EXTT8=
EXTT9=
EXTT10=
EXTT11=
PLAYORDER=
